# xmcd
#
# Track frame offsets: 
#        150
#        18923
#        32976
#        49670
#        65045
#        79848
#        97006
#        114581
#        132280
#        152161
#
# Disc length: 2326 seconds
#
# Revision: 1
# Processed by: cddbd v1.5.2PL0 Copyright (c) Steve Scherf et al.
# Submitted via: ExactAudioCopy v0.99pb5
#
DISCID=8409140a
DTITLE=Reba McEntire - Love Revival
DYEAR=2008
DGENRE=
TTITLE0=Love Revival
TTITLE1=You Must Really Love Me
TTITLE2=Bad For My Own Good
TTITLE3=The Heart Won't Lie
TTITLE4=Love Needs A Holiday
TTITLE5=With You I Am
TTITLE6=Somebody
TTITLE7=Forever Love
TTITLE8=Big Blue Sky
TTITLE9=I'll Still Be Loving You
EXTD=Valentine 2008 Hallmark Release - www.reba.com
EXTT0=
EXTT1=
EXTT2=
EXTT3=With Vince Gill
EXTT4=
EXTT5=
EXTT6=
EXTT7=
EXTT8=
EXTT9=
PLAYORDER=
